<svg id="Layer_1" data-name="Layer 1" xmlns="http://www.w3.org/2000/svg" viewBox="0 0 257.81 64"><defs><style>.cls-1{fill:#c60021;}.cls-2{fill:#d83055;}.cls-3{font-size:40px;font-family:HiraMaruProN-W4-83pv-RKSJ-H, Hiragino Maru Gothic ProN;letter-spacing:0.01em;}</style></defs><title>Artboard 1</title><g id="Layer_2" data-name="Layer 2"><path class="cls-1" d="M30.85,60H32A28,28,0,0,0,60,32h0A28.07,28.07,0,0,0,31.86,4c-.72,0-1.44,0-2.15.09C15.08,5.27,4,17.88,4,32.56v.52A26.87,26.87,0,0,0,30.8,60ZM11,29.52a8.56,8.56,0,0,1,.5-6.83L12.4,21a8.6,8.6,0,0,1,10.34-4.15l5.58,1.87a11.59,11.59,0,0,0,7.36,0l5.58-1.87A8.6,8.6,0,0,1,51.6,21l.86,1.64a8.59,8.59,0,0,1,.5,6.84A39.27,39.27,0,0,1,43.65,44.3a16.48,16.48,0,0,1-23.31,0h0A39.24,39.24,0,0,1,11,29.52Z"/><path class="cls-2" d="M26,32.77V32a6.38,6.38,0,0,0-6.37-6.37A1.64,1.64,0,0,0,18,27.23V28a6.38,6.38,0,0,0,6.37,6.37A1.64,1.64,0,0,0,26,32.77Z"/><path class="cls-2" d="M39.63,34.4A6.38,6.38,0,0,0,46,28h0v-.8a1.64,1.64,0,0,0-1.63-1.63A6.38,6.38,0,0,0,38,32v.84A1.64,1.64,0,0,0,39.63,34.4Z"/><path class="cls-2" d="M30.82,42a1.58,1.58,0,0,0,2.23.14.93.93,0,0,0,.14-.14l1.38-1.57a2.1,2.1,0,0,0-.25-3,2.27,2.27,0,0,0-.32-.22h0a4.12,4.12,0,0,0-4,0,2.1,2.1,0,0,0-.8,2.86,2.36,2.36,0,0,0,.26.36Z"/></g><text class="cls-3" transform="translate(64.37 49.13)">lalatheme</text></svg>